<?xml version="1.0" standalone="no"?><!DOCTYPE svg PUBLIC "-//W3C//DTD SVG 1.1//EN" "http://www.w3.org/Graphics/SVG/1.1/DTD/svg11.dtd"><svg class="icon" width="200px" height="200.00px" viewBox="0 0 1024 1024" version="1.1" xmlns="http://www.w3.org/2000/svg"><path  d="M925.300582 3.273557H98.698394c-52.620451 0-95.382371 42.61354-95.38237 95.016027v189.984982c0 52.399417 42.761919 95.016027 95.38237 95.016027h26.829042v542.440289c0 52.382021 42.761919 94.995561 95.381348 94.995561h582.180386c52.622498 0 95.383394-42.61354 95.383394-94.995561V383.28957h26.828018c52.590775 0 95.383394-42.61661 95.383394-95.016027V98.289584c-0.001023-52.402487-42.793642-95.016027-95.383394-95.016027z m-612.362802 729.903845h-44.23548v-44.237527h44.23548v44.237527z m0-132.706441h-44.23548v-44.236504h44.23548v44.236504z m0-132.706441h-44.23548V423.529039h44.23548v44.235481z m442.351734 265.412882H379.291001v-44.237527h375.998513v44.237527z m0-132.706441H379.291001v-44.236504h375.998513v44.236504z m0-132.706441H379.291001V423.529039h375.998513v44.235481z m201.805192-179.489954c0 17.495466-14.278191 31.6877-31.794124 31.6877h-26.828018v-96.031147c15.07944-2.485611 26.828019-14.947434 26.828018-30.67258 0-17.515932-14.210653-31.68463-31.792077-31.68463H130.492518c-17.582447 0-31.794124 14.168698-31.794124 31.68463 0 15.724123 11.726066 28.185946 26.829042 30.67258v96.031147h-26.829042c-17.515932 0-31.794124-14.193257-31.794123-31.6877V98.289584c0-17.473977 14.279215-31.667234 31.794123-31.667234h826.602188c17.515932 0 31.794124 14.193257 31.794124 31.667234v189.984982z"  /></svg>