<?xml version="1.0" standalone="no"?><!DOCTYPE svg PUBLIC "-//W3C//DTD SVG 1.1//EN" "http://www.w3.org/Graphics/SVG/1.1/DTD/svg11.dtd"><svg class="icon" width="200px" height="200.00px" viewBox="0 0 1024 1024" version="1.1" xmlns="http://www.w3.org/2000/svg"><path  d="M372.378 758.784c0-204.186 158.361-369.664 353.74-369.664 32.256 0 63.386 4.506 93.082 13.005V77.824C819.2 34.918 785.818 0 744.704 0H74.496C33.382 0 0 34.918 0 77.824v817.152C0 937.882 33.382 972.8 74.496 972.8h363.162a379.7 379.7 0 0 1-65.28-214.016zM190.157 204.8h438.886c20.224 0 36.557 22.886 36.557 51.2 0 28.314-16.384 51.2-36.557 51.2H190.157c-20.173 0-36.557-22.886-36.557-51.2 0-28.314 16.384-51.2 36.557-51.2zM307.2 614.4H204.8a51.149 51.149 0 1 1 0-102.4h102.4a51.149 51.149 0 1 1 0 102.4z"  /><path  d="M742.4 460.8a281.651 281.651 0 0 0-281.6 281.6c0 155.443 126.157 281.6 281.6 281.6S1024 897.843 1024 742.4 897.843 460.8 742.4 460.8z m126.003 207.104l-112.64 187.7a38.042 38.042 0 0 1-32.153 18.329 37.069 37.069 0 0 1-20.89-6.349l-112.64-75.06a37.58 37.58 0 0 1 41.677-62.566l79.872 53.248L803.994 629.3a37.53 37.53 0 1 1 64.41 38.605z"  /></svg>