<?xml version="1.0" standalone="no"?><!DOCTYPE svg PUBLIC "-//W3C//DTD SVG 1.1//EN" "http://www.w3.org/Graphics/SVG/1.1/DTD/svg11.dtd"><svg class="icon" width="200px" height="200.00px" viewBox="0 0 1024 1024" version="1.1" xmlns="http://www.w3.org/2000/svg"><path  d="M692.31068783 75.64813545h-68.12969989a57.14461799 57.14461799 0 0 0 0.77672296-8.1001109A57.86586074 57.86586074 0 0 0 567.48021164 9.84860444H470.61176211a57.64393989 57.64393989 0 0 0-57.75490031 57.69942011 57.14461799 57.14461799 0 0 0 0.77672296 8.1001109H345.55936508a57.92134095 57.92134095 0 0 0-57.81038053 57.75490031v4.60485757A57.69942011 57.69942011 0 0 0 345.55936508 195.76279365h346.75132275a57.92134095 57.92134095 0 0 0 57.75490031-57.75490032v-4.60485757a58.19874201 58.19874201 0 0 0-57.75490031-57.75490031z m-173.59758222 63.91320381a32.73332487 32.73332487 0 1 1 32.73332487-32.73332487 32.73332487 32.73332487 0 0 1-32.73332487 32.73332487z"  /><path  d="M934.25989079 364.42263703V160.69929989a77.6722963 77.6722963 0 0 0-77.17297439-76.95105354h-70.79275005a110.12822011 110.12822011 0 0 1-98.58833608 158.95080635H345.55936508a109.90629926 109.90629926 0 0 1-98.6438163-158.95080635H175.73443725a76.95105354 76.95105354 0 0 0-77.00653376 76.95105354l0.38836148 776.72296297a77.17297439 77.17297439 0 0 0 77.00653376 76.95105354h673.64072973a84.88472381 84.88472381 0 0 0 84.71828318-84.66280296V368.75009354c0-1.44248551-0.16644063-2.884971-0.22192085-4.32745651z m-209.54875936 390.58068995h-163.66662434v122.77770837a40.88891598 40.88891598 0 0 1-81.77783196 0V755.00332698H315.60005079a40.94439619 40.94439619 0 1 1 0-81.83331217h163.66662434v-81.77783195H333.2982383a40.94439619 40.94439619 0 1 1 0-81.83331218h126.43940233l-110.96042328-111.84810666a42.71976297 42.71976297 0 0 1 60.4734307-60.41795048l110.96042327 111.79262646 112.84675048-113.29059217a42.77524317 42.77524317 0 0 1 60.47343069 60.47343069l-112.90223069 113.29059216h126.38392212a40.94439619 40.94439619 0 1 1 0 81.83331218h-145.96843683v81.77783195h163.66662434a40.94439619 40.94439619 0 1 1 0 81.83331217z"  /></svg>