<?xml version="1.0" standalone="no"?><!DOCTYPE svg PUBLIC "-//W3C//DTD SVG 1.1//EN" "http://www.w3.org/Graphics/SVG/1.1/DTD/svg11.dtd"><svg class="icon" width="200px" height="200.00px" viewBox="0 0 1024 1024" version="1.1" xmlns="http://www.w3.org/2000/svg"><path  d="M925.2443 3.345188h-826.483484c-52.607148 0-95.372138 42.609447-95.372138 94.991468v189.979865c0 52.382021 42.764989 94.990444 95.372138 94.990445h26.818809v542.365588c0 52.372811 42.764989 94.981235 95.372138 94.981235h582.099544c52.608172 0 95.367021-42.609447 95.367021-94.981235V383.306966h26.824949c52.583612 0 95.365998-42.608423 95.365998-94.990445V98.336656c0.001023-52.383044-42.781362-94.991468-95.364975-94.991468zM669.266301 435.624519l-101.313453 100.885711h56.627718c17.559934 0 31.789007 14.168698 31.789007 31.660071 0 17.513886-14.229073 31.680537-31.789007 31.680536h-79.731925v50.383504h79.084173c18.940374 0 34.339086 15.33322 34.339086 34.209126 0 18.897396-15.398712 34.209126-34.339086 34.209127h-79.084173v68.6311c0 17.492396-14.210653 31.662117-31.787984 31.662117s-31.789007-14.170744-31.789007-31.662117v-68.6311h-79.843466c-18.940374 0-34.33397-15.311731-34.33397-34.209127 0-18.874883 15.393595-34.209126 34.33397-34.209126h79.843466v-50.383504h-79.21311c-17.58347 0-31.789007-14.166651-31.789007-31.680536 0-17.492396 14.205537-31.66007 31.789007-31.660071h53.987589l-101.307314-100.885711c-12.415774-12.373819-12.415774-32.406061 0-44.780903 12.416797-12.362562 32.526811-12.362562 44.943608 0L512.004605 502.733962l112.320135-111.890346c12.391215-12.362562 32.519648-12.362562 44.942585 0 12.415774 12.373819 12.415774 32.407084-0.001024 44.780903z m287.765983-147.307998c0 17.470907-14.276145 31.670304-31.787984 31.670304h-26.824948v-96.015797c15.074324-2.472308 26.824949-14.934131 26.824948-30.676674 0-17.504676-14.210653-31.66007-31.787983-31.66007H130.5488c-17.578354 0-31.787984 14.155395-31.787984 31.66007 0 15.742543 11.726066 28.204365 26.818809 30.676674v96.015797h-26.818809c-17.517979 0-31.789007-14.199397-31.789007-31.670304V98.336656c0-17.460674 14.271028-31.661094 31.789007-31.661094h826.483484c17.511839 0 31.787984 14.20042 31.787984 31.661094v189.979865z"  /></svg>