<?xml version="1.0" standalone="no"?><!DOCTYPE svg PUBLIC "-//W3C//DTD SVG 1.1//EN" "http://www.w3.org/Graphics/SVG/1.1/DTD/svg11.dtd"><svg class="icon" width="200px" height="200.00px" viewBox="0 0 1024 1024" version="1.1" xmlns="http://www.w3.org/2000/svg"><path  d="M880.209 58.124a56.76 56.76 0 0 0-16.613-40.142 56.755 56.755 0 0 0-40.141-16.613H57.434a56.754 56.754 0 0 0-40.142 16.613A56.757 56.757 0 0 0 0.68 58.124v907.903a56.734 56.734 0 0 0 16.623 40.121 56.735 56.735 0 0 0 40.132 16.604h181.76L880.21 371.968V58.124zM412.082 611.378H199.287c-23.509 0-42.567-19.056-42.567-42.566 0-23.502 19.059-42.563 42.567-42.563h212.794c23.509 0 42.563 19.061 42.563 42.563 0 23.51-19.054 42.566-42.562 42.566zM674.52 356.017H206.37c-23.51 0-42.567-19.058-42.567-42.561 0-23.51 19.058-42.567 42.567-42.567h468.15c23.51 0 42.566 19.058 42.566 42.567 0 23.503-19.057 42.561-42.566 42.561z m338.24 180.621l-71.92-72.027a30.342 30.342 0 0 0-22.219-9.277 31.675 31.675 0 0 0-22.189 9.277l-56.969 56.973 119.825 119.741 53.442-60.219a30.513 30.513 0 0 0 9.307-22.196 31.592 31.592 0 0 0-9.277-22.272zM454.644 903.035v119.716h119.965l346.943-350.309-119.823-119.854-347.085 350.447z m0 0" /></svg>